<?xml version="1.0" encoding="UTF-8"?>
<svg width="40" height="40" viewBox="0 0 128 128" xmlns="http://www.w3.org/2000/svg"
  xmlns:xlink="http://www.w3.org/1999/xlink">
  <defs>
    <filter id="a" x="0%" y="0%" width="100%" height="100%">
      <feColorMatrix in="SourceGraphic" values="0 0 0 0 1 0 0 0 0 1 0 0 0 0 1 0 0 0 1 0" />
    </filter>
    <mask id="o">
      <g filter="url(#a)">
        <rect width="128" height="128" fill-opacity=".30196" />
      </g>
    </mask>
    <clipPath id="x">
      <rect width="128" height="128" />
    </clipPath>
    <g id="c" clip-path="url(#x)">
      <path
        d="m69.867 2.5781c-0.058594 0.23047-0.058594 0.47656-0.011719 0.73438 0 0 0.78125 5.1758-0.10547 7.4805l-37.633 97.859c-2.6836 7.1836 0.91406 15.211 8.0938 17.973 7.1758 2.7617 15.223-0.78516 18.047-7.918h0.003907l37.637-97.859c0.73437-1.9141 4.9297-5.6211 4.9297-5.6211 0.21094-0.16016 0.375-0.34766 0.48828-0.55469l0.015625-0.039063c0.019531-0.039062 0.042969-0.078124 0.0625-0.12109 0.96875-2.5234-5.2891-7.2812-13.98-10.621-8.6953-3.3438-16.527-4.0078-17.496-1.4844-0.019531 0.042969-0.027344 0.085938-0.039063 0.12891z">
      </path>
    </g>
    <linearGradient id="q" x1="195.46" x2="296.66" y1="238.55" y2="277.46"
      gradientTransform="matrix(.31102 0 0 .31102 -13.805 -15.819)" gradientUnits="userSpaceOnUse">
      <stop stop-color="#909090" offset="0" />
      <stop stop-color="#fff" offset="1" />
    </linearGradient>
    <linearGradient id="p" x1="192.87" x2="254.14" y1="303.7" y2="327.27"
      gradientTransform="matrix(.31102 0 0 .31102 -13.805 -15.819)" gradientUnits="userSpaceOnUse">
      <stop stop-color="#900" offset="0" />
      <stop stop-color="#e70000" offset="1" />
    </linearGradient>
    <mask id="n">
      <g filter="url(#a)">
        <rect width="128" height="128" fill-opacity=".30196" />
      </g>
    </mask>
    <clipPath id="w">
      <rect width="128" height="128" />
    </clipPath>
    <g id="b" clip-path="url(#w)">
      <path
        d="m68.77 2.4805s0.76562 5.207-0.10547 7.4805l-37.633 97.859c-2.6875 7.1836 0.91406 15.211 8.0898 17.973 1.2461 0.48047 2.5156 0.76562 3.7852 0.87891-4.8398-3.6406-6.9141-10.148-4.6953-16.09h-0.003907l36.891-95.918s-5.0234-4.7148-6.3281-12.184z"
        fill="#fff"></path>
    </g>
    <mask id="m">
      <g filter="url(#a)">
        <rect width="128" height="128" fill-opacity=".50196" />
      </g>
    </mask>
    <clipPath id="v">
      <rect width="128" height="128" />
    </clipPath>
    <g id="h" clip-path="url(#v)">
      <path
        d="m57.742 65.609c0 0.60156-0.48828 1.0898-1.0898 1.0898-0.60156 0-1.0898-0.48828-1.0898-1.0898s0.48828-1.0898 1.0898-1.0898c0.60156 0 1.0898 0.48828 1.0898 1.0898z"
        fill="#fff"></path>
    </g>
    <mask id="l">
      <g filter="url(#a)">
        <rect width="128" height="128" fill-opacity=".50196" />
      </g>
    </mask>
    <clipPath id="u">
      <rect width="128" height="128" />
    </clipPath>
    <g id="g" clip-path="url(#u)">
      <path
        d="m65.445 73.516c0 0.90625-0.73828 1.6445-1.6445 1.6445-0.91016 0-1.6445-0.73828-1.6445-1.6445 0-0.91016 0.73438-1.6445 1.6445-1.6445 0.90625 0 1.6445 0.73438 1.6445 1.6445z"
        fill="#fff"></path>
    </g>
    <mask id="k">
      <g filter="url(#a)">
        <rect width="128" height="128" fill-opacity=".50196" />
      </g>
    </mask>
    <clipPath id="t">
      <rect width="128" height="128" />
    </clipPath>
    <g id="f" clip-path="url(#t)">
      <path
        d="m55.973 82.918c0 1.7031-1.3828 3.082-3.0859 3.082s-3.082-1.3789-3.082-3.082 1.3789-3.082 3.082-3.082 3.0859 1.3789 3.0859 3.082z"
        fill="#fff"></path>
    </g>
    <mask id="j">
      <g filter="url(#a)">
        <rect width="128" height="128" fill-opacity=".50196" />
      </g>
    </mask>
    <clipPath id="s">
      <rect width="128" height="128" />
    </clipPath>
    <g id="e" clip-path="url(#s)">
      <path
        d="m49.539 88.621c0 0.90625-0.73828 1.6445-1.6445 1.6445s-1.6445-0.73828-1.6445-1.6445 0.73828-1.6445 1.6445-1.6445 1.6445 0.73828 1.6445 1.6445z"
        fill="#fff"></path>
    </g>
    <mask id="i">
      <g filter="url(#a)">
        <rect width="128" height="128" fill-opacity=".50196" />
      </g>
    </mask>
    <clipPath id="r">
      <rect width="128" height="128" />
    </clipPath>
    <g id="d" clip-path="url(#r)">
      <path
        d="m55.535 100.82c0 0.60156-0.48828 1.0898-1.0938 1.0898-0.60156 0-1.0898-0.48828-1.0898-1.0898 0-0.60156 0.48828-1.0898 1.0898-1.0898 0.60547 0 1.0938 0.48828 1.0938 1.0898z"
        fill="#fff"></path>
    </g>
  </defs>
  <use mask="url(#o)" xlink:href="#c" />
  <path
    d="m68.777 1.7461c-0.054688 0.23047-0.0625 0.47656-0.007813 0.73438 0 0 0.77734 5.1758-0.10547 7.4805l-37.633 97.859c-2.6875 7.1836 0.91406 15.211 8.0898 17.973 7.1797 2.7617 15.227-0.78516 18.051-7.918l37.637-97.859c0.73438-1.9141 4.9336-5.6211 4.9336-5.6211 0.21094-0.16016 0.375-0.34375 0.48437-0.55469l0.019532-0.039063c0.019531-0.039062 0.042968-0.078125 0.058594-0.12109 0.97266-2.5234-5.2891-7.2773-13.98-10.621-8.6914-3.3438-16.523-4.0078-17.496-1.4844-0.015625 0.042969-0.023437 0.085937-0.039063 0.13281l-0.007812 0.039063z"
    fill="url(#q)"></path>
  <path
    d="m80.586 46.016-27.125 70.578c-2 5.0586-7.8281 7.6875-12.992 5.6992-5.168-1.9844-7.9648-7.9336-6.0625-13.027l17.34-45.094s2.168-3.4961 6.4219-5.9805c4.25-2.4844 7.7578-1.9609 12.48-4.0586 4.7227-2.1016 9.9375-8.1172 9.9375-8.1172z"
    fill="url(#p)"></path>
  <path
    d="m94.242 11.641c0.54687-1.418-3.3867-4.25-8.7812-6.3242-5.3945-2.0742-10.211-2.6055-10.758-1.1875-0.54297 1.418 3.3867 4.25 8.7812 6.3242 5.3945 2.0781 10.211 2.6094 10.758 1.1875z"
    fill="#333"></path>
  <use mask="url(#n)" xlink:href="#b" />
  <use mask="url(#m)" xlink:href="#h" />
  <use mask="url(#l)" xlink:href="#g" />
  <use mask="url(#k)" xlink:href="#f" />
  <use mask="url(#j)" xlink:href="#e" />
  <use mask="url(#i)" xlink:href="#d" />
</svg>