<svg viewBox="0 0 128 128" xmlns="http://www.w3.org/2000/svg" width="40" height="40">
    <defs>
        <linearGradient id="a" x2="64" y1="-21.333" y2="85.333" gradientTransform="scale(2)"
            gradientUnits="userSpaceOnUse">
            <stop stop-color="#2282ad" offset="0"></stop>
            <stop stop-color="#6cd6b9" offset="1"></stop>
        </linearGradient>
    </defs>
    <path
        d="m32 51.199c4.2656-17.066 14.934-25.598 32-25.598 25.602 0 28.801 19.199 41.602 22.398 8.5312 2.1328 16-1.0664 22.398-9.6016-4.2656 17.066-14.934 25.602-32 25.602-25.602 0-28.801-19.199-41.602-22.398-8.5312-2.1367-16 1.0625-22.398 9.5977zm-32 38.402c4.2656-17.066 14.934-25.602 32-25.602 25.602 0 28.801 19.199 41.602 22.398 8.5312 2.1367 16-1.0625 22.398-9.5977-4.2656 17.066-14.934 25.598-32 25.598-25.602 0-28.801-19.199-41.602-22.398-8.5312-2.1328-16 1.0664-22.398 9.6016z"
        fill="url(#a)" fill-rule="evenodd"></path>
</svg>